<svg xmlns="http://www.w3.org/2000/svg" viewBox="0 0 16 16">
  <circle cx="4" cy="7" r="3" fill="#94c0d4"/>
  <path d="M11.5,10.5a3.5,3.5,0,0,0-7,0v1a2.5,2.5,0,0,0,5,0v-1Z" fill="#94c0d4"/>
  <path d="M8,4.5a2.5,2.5,0,1,1,2.5,2.5A2.5,2.5,0,0,1,8,4.5Z" fill="#94c0d4"/>
  <path d="M10.5,5.5H11a1,1,0,0,1,0,2h-.5Z" fill="#fff"/>
  <path d="M12,13.5H2a.5.5,0,0,1-.5-.5v-3A3.5,3.5,0,0,1,5.5,6h5A3.5,3.5,0,0,1,14,9.5v3a.5.5,0,0,1-.5.5Z" fill="#94c0d4"/>
  <path d="M5.5,7a2.5,2.5,0,0,0-2,4v.5H8V11a2.5,2.5,0,0,0-2-4Z" fill="#fff"/>
  <path d="M8,7h1v.5a1,1,0,0,1-2,0V7Z" fill="#fff"/>
</svg>
